<?xml version="1.0" encoding="UTF-8"?>
<svg width="1200pt" height="1200pt" version="1.1" viewBox="0 0 1200 1200" xmlns="http://www.w3.org/2000/svg">
 <g>
  <path fill="currentColor" d="m343.12 1038.8c-28.125 0-54.375-16.875-65.625-43.125l-1.875-1.875-95.625-251.25c-1.875-5.625-9.375-11.25-16.875-11.25h-30c-28.125 0-52.5-18.75-58.125-45-5.625-30 15-60 45-65.625 3.75-1.875 7.5-1.875 11.25-1.875h71.25c28.125 0 54.375 16.875 65.625 43.125l1.875 1.875 50.625 133.12c1.875 3.75 3.75 3.75 7.5 3.75 1.875 0 3.75-1.875 3.75-3.75l95.625-588.75c7.5-33.75 35.625-58.125 71.25-58.125h568.12c28.125 0 52.5 18.75 58.125 45 5.625 30-15 60-45 65.625-3.75 1.875-7.5 1.875-11.25 1.875h-521.25c-9.375 0-16.875 7.5-18.75 15l-114.38 703.12c-5.625 31.875-31.875 54.375-63.75 58.125h-7.5z"/>
  <path fill="currentColor" d="m980.62 911.25c20.625 24.375 16.875 60-5.625 78.75-24.375 20.625-60 16.875-78.75-5.625l-1.875-1.875-88.125-106.88-88.125 106.88c-18.75 24.375-54.375 28.125-78.75 9.375s-28.125-54.375-9.375-78.75l1.875-1.875 101.25-123.75-101.25-123.75c-20.625-24.375-16.875-60 5.625-78.75 24.375-20.625 60-16.875 78.75 5.625l1.875 1.875 88.125 106.88 88.125-106.88c18.75-24.375 54.375-28.125 78.75-9.375s28.125 54.375 9.375 78.75l-1.875 1.875-101.25 123.75z"/>
 </g>
</svg>
