<svg fill="currentColor" xmlns="http://www.w3.org/2000/svg" xmlns:xlink="http://www.w3.org/1999/xlink" version="1.1" x="0px" y="0px" viewBox="0 0 144.083 144" enable-background="new 0 0 144.083 144" xml:space="preserve"><path d="M30.014,81.385h68.115V35.861H30.014V81.385z M42.502,74.746l8.763-13.663l8.763,13.663H42.502z M62.414,74.746l4.67-7.284  l4.672,7.284H62.414z M36.014,41.861h56.115v33.523H79.292L67.083,56.347l-5.863,9.145l-9.955-15.523l-15.251,23.78V41.861z"></path><path d="M80.838,63.488c5.158,0,9.355-4.197,9.355-9.355c0-5.158-4.197-9.354-9.355-9.354c-5.156,0-9.353,4.196-9.353,9.354  C71.486,59.291,75.682,63.488,80.838,63.488z M80.838,50.779c1.852,0,3.355,1.504,3.355,3.354c0,1.851-1.504,3.355-3.355,3.355  c-1.85,0-3.354-1.505-3.354-3.355C77.485,52.284,78.989,50.779,80.838,50.779z"></path><path d="M109.418,82.203V31.221c0-3.597-2.928-6.523-6.525-6.523H25.331c-3.599,0-6.526,2.926-6.526,6.523v68.164  c0,3.598,2.928,6.525,6.526,6.525h63.384c2.283,7.73,9.437,13.393,17.897,13.393c10.293,0,18.666-8.374,18.666-18.666  C125.278,91.299,118.381,83.564,109.418,82.203z M87.981,99.91h-62.65c-0.29,0-0.526-0.235-0.526-0.525V31.221  c0-0.289,0.236-0.523,0.526-0.523h77.563c0.291,0,0.525,0.235,0.525,0.523v51.042C94.878,83.744,88.325,91.035,87.981,99.91z   M106.612,113.303c-6.984,0-12.668-5.682-12.668-12.666c0-6.985,5.684-12.668,12.668-12.668s12.666,5.683,12.666,12.668  C119.278,107.621,113.596,113.303,106.612,113.303z"></path><polygon points="109.612,92.553 103.612,92.553 103.612,97.637 98.528,97.637 98.528,103.637 103.612,103.637 103.612,108.719   109.612,108.719 109.612,103.637 114.694,103.637 114.694,97.637 109.612,97.637 "></polygon></svg>
