<svg height='100px' width='100px'  fill="#3000f7" xmlns="http://www.w3.org/2000/svg" xmlns:xlink="http://www.w3.org/1999/xlink" version="1.1" x="0px" y="0px" viewBox="0 0 128 128" style="enable-background:new 0 0 128 128;" xml:space="preserve"><g><g><path d="M92.6,50.6L85,54c-0.5,0.2-0.7,0.7-0.5,1.2c0.2,0.3,0.5,0.5,0.8,0.5c0.1,0,0.3,0,0.4-0.1l7.6-3.4    c0.5-0.2,0.7-0.7,0.5-1.2C93.6,50.6,93,50.4,92.6,50.6z"></path><path d="M64,4C30.9,4,4,30.9,4,64s26.9,60,60,60s60-26.9,60-60S97.1,4,64,4z M32.1,56.9l29-13.2    c0.3-0.1,0.6-0.1,0.9,0.1c0.3,0.2,0.4,0.5,0.4,0.8v10.9L93,35.5l-5.3-0.9c-0.5-0.1-0.8-0.5-0.7-1c0.1-0.5,0.5-0.8,1-0.7l7.6,1.3    c0,0,0,0,0,0l0,0c0,0,0,0,0,0c0.1,0,0.1,0,0.2,0.1c0,0,0.1,0,0.1,0c0,0,0,0,0,0c0,0,0.1,0.1,0.1,0.1c0,0,0,0,0,0    c0,0,0.1,0.1,0.1,0.1c0,0,0,0,0,0c0,0,0,0,0,0c0,0,0,0.1,0,0.1c0,0.1,0.1,0.1,0.1,0.2c0,0,0,0,0,0c0,0.1,0,0.1,0,0.2    c0,0,0,0.1,0,0.1c0,0,0,0,0,0v0l-1.3,7.4c-0.1,0.4-0.5,0.8-0.9,0.8c-0.1,0-0.1,0-0.2,0c-0.5-0.1-0.8-0.6-0.7-1l0.9-5.4L62,57.8    c-0.3,0.2-0.6,0.2-0.9,0c-0.3-0.2-0.5-0.5-0.5-0.8V45.9L32.9,58.5c-0.1,0.1-0.3,0.1-0.4,0.1c-0.3,0-0.7-0.2-0.8-0.5    C31.5,57.6,31.7,57.1,32.1,56.9z M93.8,84.1c-0.2-0.5-0.7-0.7-1.2-0.5L85,87c-0.3,0.2-0.5,0.5-0.5,0.8V83c0,0.1,0,0.2,0.1,0.4    c0.2,0.3,0.5,0.5,0.8,0.5c0.1,0,0.3,0,0.4-0.1l7.6-3.4c0.3-0.2,0.5-0.5,0.5-0.8v4.8C93.9,84.3,93.8,84.2,93.8,84.1z M93.9,84.4    v4.7c0,0.5-0.4,0.9-0.9,0.9h-7.6c-0.5,0-0.9-0.4-0.9-0.9v-1.3c0,0.1,0,0.2,0.1,0.4c0.2,0.3,0.5,0.5,0.8,0.5c0.1,0,0.3,0,0.4-0.1    l7.6-3.4C93.7,85.1,93.9,84.8,93.9,84.4z M93.8,79.2c-0.2-0.5-0.7-0.7-1.2-0.5L85,82.2c-0.3,0.2-0.5,0.5-0.5,0.8v-4.8    c0,0.1,0,0.2,0.1,0.4c0.2,0.3,0.5,0.5,0.8,0.5c0.1,0,0.3,0,0.4-0.1l7.6-3.4c0.3-0.2,0.5-0.5,0.5-0.8v4.8    C93.9,79.5,93.8,79.4,93.8,79.2z M93.8,74.4C93.6,74,93,73.7,92.6,74L85,77.4c-0.3,0.2-0.5,0.5-0.5,0.8v-4.8c0,0.1,0,0.2,0.1,0.4    c0.2,0.3,0.5,0.5,0.8,0.5c0.1,0,0.3,0,0.4-0.1l7.6-3.4c0.3-0.2,0.5-0.5,0.5-0.8v4.8C93.9,74.6,93.8,74.5,93.8,74.4z M93.8,69.6    c-0.2-0.5-0.7-0.7-1.2-0.5L85,72.5c-0.3,0.2-0.5,0.5-0.5,0.8v-4.8c0,0.1,0,0.2,0.1,0.4c0.2,0.3,0.5,0.5,0.8,0.5    c0.1,0,0.3,0,0.4-0.1l7.6-3.4c0.3-0.2,0.5-0.5,0.5-0.8v4.8C93.9,69.8,93.8,69.7,93.8,69.6z M93.8,64.7c-0.2-0.5-0.7-0.7-1.2-0.5    L85,67.7c-0.3,0.2-0.5,0.5-0.5,0.8v-4.8c0,0.1,0,0.2,0.1,0.4c0.2,0.3,0.5,0.5,0.8,0.5c0.1,0,0.3,0,0.4-0.1l7.6-3.4    c0.3-0.2,0.5-0.5,0.5-0.8v4.8C93.9,65,93.8,64.8,93.8,64.7z M93.8,59.9c-0.2-0.5-0.7-0.7-1.2-0.5L85,62.8    c-0.3,0.2-0.5,0.5-0.5,0.8v-4.2c0,0.1,0,0.2,0.1,0.4c0.2,0.3,0.5,0.5,0.8,0.5c0.1,0,0.3,0,0.4-0.1l7.6-3.4    c0.3-0.2,0.5-0.5,0.5-0.8v4.2C93.9,60.1,93.8,60,93.8,59.9z M93.8,55.7c-0.2-0.5-0.7-0.7-1.2-0.5L85,58.6    c-0.3,0.2-0.5,0.5-0.5,0.8v-9.3c0-0.3,0.2-0.6,0.5-0.8l7.6-4c0.3-0.1,0.6-0.1,0.9,0c0.3,0.2,0.4,0.5,0.4,0.8V56    C93.9,55.9,93.8,55.8,93.8,55.7z M81.3,52.7v36.5c0,0.5-0.4,0.9-0.9,0.9h-7.6c-0.5,0-0.9-0.4-0.9-0.9V56.4c0-0.3,0.2-0.7,0.5-0.8    l7.6-3.8c0.3-0.1,0.6-0.1,0.9,0C81.1,52.1,81.3,52.4,81.3,52.7z M68.7,59v30.2c0,0.5-0.4,0.9-0.9,0.9h-7.6c-0.5,0-0.9-0.4-0.9-0.9    V61.5c0-0.4,0.2-0.7,0.6-0.9l7.6-2.5c0.3-0.1,0.6,0,0.8,0.1C68.5,58.4,68.7,58.7,68.7,59z M56.1,52.7v36.5c0,0.5-0.4,0.9-0.9,0.9    h-7.6c-0.5,0-0.9-0.4-0.9-0.9v-34c0-0.4,0.2-0.7,0.6-0.9l7.6-2.5c0.3-0.1,0.6,0,0.8,0.1C56,52.1,56.1,52.4,56.1,52.7z M43.5,57.7    v31.5c0,0.5-0.4,0.9-0.9,0.9H35c-0.5,0-0.9-0.4-0.9-0.9V61.5c0-0.3,0.2-0.7,0.5-0.8l7.6-3.8c0.3-0.1,0.6-0.1,0.9,0    C43.3,57.1,43.5,57.4,43.5,57.7z M95.5,95.1h-63c-0.5,0-0.9-0.4-0.9-0.9s0.4-0.9,0.9-0.9h63c0.5,0,0.9,0.4,0.9,0.9    S96,95.1,95.5,95.1z"></path></g></g></svg>
