<svg height='100px' width='100px'  fill="#000000" xmlns="http://www.w3.org/2000/svg" xmlns:xlink="http://www.w3.org/1999/xlink" version="1.1" x="0px" y="0px" viewBox="0 0 100 100" style="enable-background:new 0 0 100 100;" xml:space="preserve"><path d="M76.8,15.9H23.2c-4,0-7.3,3.3-7.3,7.3v53.7c0,4,3.3,7.3,7.3,7.3h53.7c4,0,7.3-3.3,7.3-7.3V23.2  C84.1,19.1,80.9,15.9,76.8,15.9z M32.1,48L32.1,48c1.1-1.1,2.9-1.1,4,0l7.7,7.7c0.3,0.3,0.7,0.3,1,0l19.1-19.1c1.1-1.1,2.9-1.1,4,0  l0,0c1.1,1.1,1.1,2.9,0,4L45.4,63.1c-0.6,0.6-1.6,0.6-2.3,0L32.1,52C31,50.9,31,49.1,32.1,48z"></path></svg>
