<svg height='100px' width='100px'  fill="#000000" xmlns="http://www.w3.org/2000/svg" xmlns:xlink="http://www.w3.org/1999/xlink" version="1.1" x="0px" y="0px" viewBox="0 0 512 512" enable-background="new 0 0 512 512" xml:space="preserve"><g><path d="M314.8,78.7c-13.4-4.5-27.7,2.8-32.1,16.1L181.1,399.6c-4.4,13.3,3.5,26,16.1,32.1c12.9,6.3,27.2,2.7,32.1-16.1   l101.6-304.8C335.3,97.6,328.1,83.2,314.8,78.7z"></path><path d="M498.4,233.9l-127-81.8c-11.8-7.6-27.5-4.2-35.1,7.6c-7.6,11.8-4.2,27.5,7.6,35.1l93.9,60.5l-93.9,60.5   c-11.8,7.6-14.1,22.7-7.6,35.1c6.6,12.6,20.3,14.6,35.1,7.6l127-81.9c7.3-4.7,11.6-12.7,11.6-21.3   C510,246.6,505.6,238.6,498.4,233.9z"></path><path d="M168.2,315.8l-93.9-60.5l93.9-60.5c11.8-7.6,15.2-23.3,7.6-35.1c-7.6-11.8-23.3-15.2-35.1-7.6l-127,81.8   C6.4,238.6,2,246.6,2,255.2c0,8.6,4.4,16.7,11.6,21.3l127,81.9c20.2,10.5,28.9,2.6,35.1-7.6C183.1,338.9,179.9,323.3,168.2,315.8z"></path></g></svg>
