<svg xmlns="http://www.w3.org/2000/svg" xmlns:xlink="http://www.w3.org/1999/xlink" width="100" height="100" viewBox="0 0 100 100"><rect width="100%" height="100%" fill="#f78000" rx="5" ry="5"></rect><g transform="translate(50 50) scale(0.69 0.69) rotate(0) translate(-50 -50)" style="fill:#ffffff"><svg fill="#ffffff" xmlns="http://www.w3.org/2000/svg" xmlns:xlink="http://www.w3.org/1999/xlink" version="1.1" x="0px" y="0px" viewBox="0 0 32 32" enable-background="new 0 0 32 32" xml:space="preserve"><path d="M28,25h-3.555c-0.693-1.19-1.969-2-3.445-2s-2.752,0.81-3.445,2H4c-1.104,0-2,0.896-2,2s0.896,2,2,2h13.555  c0.693,1.19,1.969,2,3.445,2s2.752-0.81,3.445-2H28c1.104,0,2-0.896,2-2S29.104,25,28,25z M28,1H4C2.9,1,2,1.9,2,3v16  c0,1.1,0.9,2,2,2h24c1.1,0,2-0.9,2-2V3C30,1.9,29.1,1,28,1z M11,17V5l11,6L11,17z"></path></svg></g></svg>
