<svg height='100px' width='100px' xmlns="http://www.w3.org/2000/svg" xmlns:xlink="http://www.w3.org/1999/xlink" version="1.1" x="0px" y="0px" viewBox="0 0 64 64" enable-background="new 0 0 64 64" xml:space="preserve"><metadata><?xpacket begin="&#65279;" id="W5M0MpCehiHzreSzNTczkc9d"?><x:xmpmeta xmlns:x="adobe:ns:meta/" x:xmptk="Adobe XMP Core 5.3-c011 66.145661, 2012/02/06-14:56:27        "></x:xmpmeta><?xpacket end="w"?></metadata><g><path d="M49.7822,10.0093H36.7129V8.7979c0-1.4819-1.2051-2.687-2.6865-2.687h-4.0527c-1.4814,0-2.6865,1.2051-2.6865,2.687v1.2114   H14.2178c-0.918,0-1.6641,0.7471-1.6641,1.6646v1.8188c0,0.918,0.7461,1.6641,1.6641,1.6641h35.5645   c0.918,0,1.6641-0.7461,1.6641-1.6641v-1.8188C51.4463,10.7563,50.7002,10.0093,49.7822,10.0093z M29.2842,8.7979   c0-0.3809,0.3096-0.6904,0.6895-0.6904h4.0527c0.3809,0,0.6904,0.3096,0.6904,0.6904v1.2114h-5.4326V8.7979z"></path><path d="M18.6475,53.022c0.1719,2.6836,2.499,4.8672,5.1885,4.8672H40.165c2.6885,0,5.0156-2.1836,5.1865-4.8672l2.332-36.5337   H16.3164L18.6475,53.022z M36.8291,50.3604l1.9268-28.4751c0.0371-0.5508,0.5137-0.9663,1.0635-0.9292s0.9658,0.5132,0.9287,1.064   l-1.9268,28.4751c-0.0352,0.5273-0.4746,0.9312-0.9951,0.9312c-0.0225,0-0.0449-0.0005-0.0684-0.002   C37.208,51.3872,36.792,50.9106,36.8291,50.3604z M31.002,21.9199c0-0.5513,0.4463-0.9985,0.998-0.9985s0.998,0.4473,0.998,0.9985   v28.5405c0,0.5513-0.4463,0.9985-0.998,0.9985s-0.998-0.4473-0.998-0.9985V21.9199z M24.1807,20.9561   c0.5508-0.0371,1.0273,0.3784,1.0645,0.9292l1.9268,28.4751c0.0371,0.5503-0.3789,1.0269-0.9297,1.064   c-0.0225,0.0015-0.0459,0.002-0.0684,0.002c-0.5205,0-0.959-0.4038-0.9951-0.9312L23.252,22.02   C23.2148,21.4692,23.6309,20.9932,24.1807,20.9561z"></path></g></svg>
