<svg height='100px' width='100px'  fill="#000000" xmlns="http://www.w3.org/2000/svg" xmlns:xlink="http://www.w3.org/1999/xlink" viewBox="0 0 100 100" version="1.1" x="0px" y="0px"><title>Delete</title><desc>Created with Sketch.</desc><g stroke="none" stroke-width="1" fill="none" fill-rule="evenodd"><g fill-rule="nonzero" fill="#000000"><path d="M26,79.9964348 C26,85.5212513 30.4726199,90 36.0039454,90 L63.9960546,90 C69.5210811,90 74,85.5211489 74,79.9964348 L74,32 L26,32 L26,79.9964348 Z M79,23 C79,20.2385763 76.7600656,18 73.9913864,18 L62,18 L62,15.9940809 C62,13.2359262 59.76369,11 56.9980273,11 L43.0019727,11 C40.2394595,11 38,13.2340897 38,15.9940809 L38,18 L26.0086136,18 C23.2424327,18 21,20.2441952 21,23 L21,28 L79,28 L79,23 Z"></path></g></g></svg>
