<svg height='100px' width='100px'  fill="#25d366" xmlns:dc="http://purl.org/dc/elements/1.1/" xmlns:cc="http://creativecommons.org/ns#" xmlns:rdf="http://www.w3.org/1999/02/22-rdf-syntax-ns#" xmlns:svg="http://www.w3.org/2000/svg" xmlns="http://www.w3.org/2000/svg" xmlns:sodipodi="http://sodipodi.sourceforge.net/DTD/sodipodi-0.dtd" xmlns:inkscape="http://www.inkscape.org/namespaces/inkscape" viewBox="0 0 479.87808 479.92641" version="1.1" x="0px" y="0px"><g transform="translate(3498.1925,-359.95157)"><path style="" d="m -3283.2535,838.51222 c -59.5132,-6.69107 -116.3239,-35.95444 -154.5003,-79.58354 -33.3498,-38.11309 -53.6217,-84.54764 -59.1775,-135.55134 -8.0713,-74.09761 23.0796,-153.49581 79.6398,-202.98715 38.113,-33.34979 84.5476,-53.62165 135.5513,-59.17743 74.0976,-8.07136 153.4958,23.07962 202.9871,79.63972 33.3498,38.11309 53.6217,84.54764 59.1775,135.55134 8.0713,74.09761 -23.0796,153.49581 -79.6398,202.98715 -50.6564,44.32548 -119.3528,66.39383 -184.0381,59.12125 z m 117.5001,-108.62163 0,-30 -92.5,0 -92.5001,0 0,30 0,30 92.5001,0 92.5,0 0,-30 z m -36.8746,-101.25041 54.9897,-55.0004 -21.552,-21.55202 -21.552,-21.55202 -18.7556,18.72429 -18.7555,18.72429 0,-73.42187 0,-73.42188 -30,0 -30.0001,0 0,73.42188 0,73.42187 -18.7555,-18.72429 -18.7556,-18.72429 -21.552,21.55202 -21.552,21.55202 54.9897,55.0004 c 30.2444,30.25023 55.2758,55.00041 55.6255,55.00041 0.3496,0 25.381,-24.75018 55.6254,-55.00041 z" fill="#25d366"></path></g></svg>
