<svg height='100px' width='100px'  fill="#000000" xmlns="http://www.w3.org/2000/svg" xmlns:xlink="http://www.w3.org/1999/xlink" version="1.1" x="0px" y="0px" viewBox="0 0 24 24" style="enable-background:new 0 0 24 24;" xml:space="preserve"><g><path d="M0.1,0.7v7.8c0,0.4,0.3,0.7,0.7,0.7s0.7-0.3,0.7-0.7V2.3l8.9,8.9c0.1,0.1,0.3,0.2,0.5,0.2c0.2,0,0.3-0.1,0.5-0.2   c0.3-0.3,0.3-0.7,0-0.9L2.3,1.4h6.3c0.4,0,0.7-0.3,0.7-0.7S8.9,0.1,8.5,0.1H0.7c-0.1,0-0.2,0-0.3,0.1c-0.1,0-0.1,0.1-0.1,0.1   c0,0,0,0-0.1,0c0,0,0,0,0,0.1c0,0-0.1,0.1-0.1,0.2C0.1,0.5,0.1,0.6,0.1,0.7z"></path><path d="M23.9,23.3C23.9,23.3,23.9,23.3,23.9,23.3l0-7.9c0-0.4-0.3-0.7-0.7-0.7c-0.4,0-0.6,0.3-0.6,0.7v6.3l-8.9-8.9   c-0.3-0.3-0.7-0.3-0.9,0c-0.3,0.3-0.3,0.7,0,0.9l8.9,8.9h-6.3c-0.4,0-0.6,0.3-0.6,0.7s0.3,0.7,0.6,0.7h7.8c0.1,0,0.2,0,0.2-0.1   c0.1,0,0.1-0.1,0.2-0.1c0,0,0,0,0,0c0,0,0,0,0,0c0-0.1,0.1-0.1,0.1-0.2C23.9,23.5,23.9,23.4,23.9,23.3z"></path><path d="M13.3,11.3c0.2,0,0.3-0.1,0.5-0.2l8.9-8.9v6.3c0,0.4,0.3,0.7,0.7,0.7s0.7-0.3,0.6-0.7V0.7c0-0.1,0-0.2-0.1-0.3c0,0,0,0,0,0   c0-0.1-0.1-0.1-0.1-0.2c0,0-0.1-0.1-0.1-0.1c0,0,0,0-0.1,0c-0.1,0-0.2-0.1-0.3-0.1h-7.8c-0.4,0-0.7,0.3-0.7,0.7s0.3,0.7,0.7,0.7   h6.3l-8.9,8.9c-0.3,0.3-0.3,0.7,0,0.9C13,11.3,13.2,11.3,13.3,11.3z"></path><path d="M10.2,12.9l-8.9,8.9v-6.3c0-0.4-0.3-0.7-0.7-0.7s-0.7,0.3-0.7,0.7v7.8c0,0,0,0,0,0.1c0,0.1,0,0.1,0,0.2   c0.1,0.2,0.2,0.3,0.4,0.4c0.1,0,0.2,0.1,0.2,0.1h7.8c0.4,0,0.7-0.3,0.7-0.7s-0.3-0.7-0.7-0.7H2.3l8.9-8.9c0.3-0.3,0.3-0.7,0-0.9   S10.5,12.6,10.2,12.9z"></path></g></svg>
