<svg height='100px' width='100px'  fill="#000000" xmlns="http://www.w3.org/2000/svg" xmlns:xlink="http://www.w3.org/1999/xlink" xml:space="preserve" version="1.1" style="shape-rendering:geometricPrecision;text-rendering:geometricPrecision;image-rendering:optimizeQuality;" viewBox="0 0 1.851 1.851" x="0px" y="0px" fill-rule="evenodd" clip-rule="evenodd"><defs><style type="text/css">

    .fil0 {fill:#000000;fill-rule:nonzero}

  </style></defs><g><path class="fil0" d="M0.608 0.061l0 0.547 -0.547 0 0 -0.172 0.252 0 -0.313 -0.314 0.122 -0.122 0.314 0.313 0 -0.252 0.172 0zm0.929 1.354l0.314 0.314 -0.122 0.122 -0.314 -0.314 0 0.253 -0.173 0 0 -0.548 0.548 0 0 0.173 -0.253 0zm-1.101 0.122l-0.314 0.314 -0.122 -0.122 0.313 -0.314 -0.252 0 0 -0.173 0.547 0 0 0.548 -0.172 0 0 -0.253zm0.979 -1.224l0.314 -0.313 0.122 0.122 -0.314 0.314 0.253 0 0 0.172 -0.548 0 0 -0.547 0.173 0 0 0.252z"></path></g></svg>
