<svg xmlns="http://www.w3.org/2000/svg" xmlns:xlink="http://www.w3.org/1999/xlink" viewBox="0 0 100 100"><circle stroke="none" r="48%" cx="50%" cy="50%"></circle><g transform="translate(50 50) scale(0.69 0.69) rotate(0) translate(-50 -50)" style="fill:#ffffff"><svg fill="#ffffff" xmlns="http://www.w3.org/2000/svg" xmlns:xlink="http://www.w3.org/1999/xlink" version="1.1" x="0px" y="0px" viewBox="0 0 100 100" enable-background="new 0 0 100 100" xml:space="preserve"><g><g><path d="M51.218,47.936V78.5h19.781c2.479,0,4.5-2.018,4.5-4.5V47.936H51.218z"></path><path d="M48.784,47.936H24.501V74c0,2.482,2.018,4.5,4.5,4.5h19.783V47.936z"></path><path d="M76.999,33.5h-9c0.943-1.254,1.5-2.812,1.5-4.5c0-4.133-3.363-7.5-7.5-7.5c-4.172,0-7.668,3.305-9.379,5.273    c-1.041,1.193-1.934,2.471-2.619,3.707c-0.689-1.236-1.582-2.512-2.619-3.707c-1.715-1.965-5.213-5.273-9.381-5.273    c-4.135,0-7.5,3.367-7.5,7.5c0,1.688,0.559,3.246,1.502,4.5h-9.002c-0.83,0-1.5,0.676-1.5,1.5v9c0,0.83,0.67,1.5,1.5,1.5h53.998    c0.826,0,1.5-0.67,1.5-1.5v-9C78.499,34.176,77.825,33.5,76.999,33.5z M38.001,33.5c-2.482,0-4.5-2.018-4.5-4.5    c0-2.48,2.018-4.5,4.5-4.5c2.176,0,4.771,1.547,7.119,4.242c1.443,1.662,2.496,3.434,3.014,4.758H38.001z M61.999,33.5H51.866    c0.52-1.324,1.568-3.096,3.016-4.758c2.342-2.695,4.938-4.242,7.117-4.242c2.479,0,4.5,2.02,4.5,4.5    C66.499,31.482,64.478,33.5,61.999,33.5z"></path></g></g></svg></g></svg>
