<svg xmlns="http://www.w3.org/2000/svg" xmlns:xlink="http://www.w3.org/1999/xlink" viewBox="0 0 100 100"><circle stroke="none" r="48%" cx="50%" cy="50%"></circle><g transform="translate(50 50) scale(0.69 0.69) rotate(0) translate(-50 -50)" style="fill:#ffffff"><svg fill="#ffffff" xmlns="http://www.w3.org/2000/svg" data-name="Layer 1" viewBox="0 0 24 24" x="0px" y="0px"><title>rounded</title><path d="M19.49481,10.43164l-6-6.75a2,2,0,0,0-2.98962,0l-6,6.75A2,2,0,0,0,4,11.76039V17a3,3,0,0,0,3,3H9a1,1,0,0,0,1-1V17.107a2.07441,2.07441,0,0,1,1.66407-2.07959A2.00135,2.00135,0,0,1,14,17v2a1,1,0,0,0,1,1h2a3,3,0,0,0,3-3V11.76039A2,2,0,0,0,19.49481,10.43164Z"></path></svg></g></svg>
