<svg height='100px' width='100px'  fill="#000000" xmlns="http://www.w3.org/2000/svg" viewBox="0 0 402.6 402.6" x="0px" y="0px"><g><path d="M201.3 0c111.18,0 201.31,90.12 201.31,201.3 0,111.17 -90.13,201.3 -201.31,201.3 -111.17,0 -201.3,-90.13 -201.3,-201.3 0,-111.18 90.13,-201.3 201.3,-201.3zm0 16.69c-101.96,0 -184.61,82.65 -184.61,184.61 0,101.96 82.65,184.61 184.61,184.61 101.96,0 184.62,-82.65 184.62,-184.61 0,-101.96 -82.66,-184.61 -184.62,-184.61z"></path><path class="fil1" d="M221.55 279.84l20.92 0c2.51,0 4.57,2.05 4.57,4.57l0 25.15c0,2.52 -2.06,4.58 -4.57,4.58l-82.33 0c-2.52,0 -4.58,-2.06 -4.58,-4.58l0 -25.15c0,-2.52 2.06,-4.57 4.58,-4.57l20.91 0 0 -78.77 -19.72 0c-2.52,0 -4.57,-2.06 -4.57,-4.58l0 -25.15c0,-2.52 2.05,-4.58 4.57,-4.58l55.65 0c2.52,0 4.57,2.06 4.57,4.58 0,36.16 0,72.33 0,108.5z"></path><path class="fil1" d="M163.61 133.68l0 -39.73c0,-3.02 2.46,-5.49 5.49,-5.49l45.82 0c3.03,0 5.49,2.47 5.49,5.49l0 39.73c0,3.02 -2.46,5.49 -5.49,5.49l-45.82 0c-3.03,0 -5.49,-2.47 -5.49,-5.49z"></path></g></svg>
