<svg xmlns="http://www.w3.org/2000/svg" xmlns:xlink="http://www.w3.org/1999/xlink" width="100" height="100" viewBox="0 0 100 100"><circle stroke="none" fill="#f78000" r="48%" cx="50%" cy="50%"></circle><g transform="translate(50 50) scale(0.69 0.69) rotate(0) translate(-50 -50)" style="fill:#ffffff"><svg fill="#ffffff" xmlns="http://www.w3.org/2000/svg" xmlns:xlink="http://www.w3.org/1999/xlink" version="1.1" x="0px" y="0px" viewBox="0 0 160 160" style="enable-background:new 0 0 160 160;" xml:space="preserve"><path d="M138.331,31.548c6.548,0,11.875-5.327,11.875-11.875s-5.327-11.875-11.875-11.875s-11.875,5.327-11.875,11.875  c0,0.303,0.023,0.601,0.045,0.898L90.574,34.722c-3.294-2.165-7.227-3.435-11.454-3.435c-3.417,0-6.637,0.84-9.488,2.299  L44.884,19.527c0.182-0.825,0.285-1.68,0.285-2.559c0-6.548-5.327-11.875-11.875-11.875s-11.875,5.327-11.875,11.875  s5.327,11.875,11.875,11.875c3.142,0,5.995-1.235,8.121-3.235L63.61,38.216c-3.352,3.712-5.413,8.61-5.413,13.994  c0,0.687,0.043,1.37,0.11,2.048L30.013,69.403c-2.146-2.123-5.094-3.438-8.344-3.438c-6.548,0-11.875,5.327-11.875,11.875  c0,6.547,5.327,11.875,11.875,11.875s11.875-5.327,11.875-11.875c0-0.776-0.08-1.533-0.223-2.268l26.91-14.405  c1.48,3.118,3.716,5.874,6.569,7.955c0.283,0.207,0.591,0.348,0.905,0.459v37.819c-3.814-2.197-8.188-3.384-12.604-3.384h-3.566  c-5.109,0-9.266,4.157-9.266,9.267c0,3.066,1.512,5.929,4.046,7.656l4.966,3.386c6.478,4.418,11.655,10.509,14.971,17.615  c3.676,7.876,11.667,12.965,20.359,12.965h29.428c12.389,0,22.467-10.078,22.467-22.467V95.581c0-6.327-5.147-11.475-11.476-11.475  c-1.915,0-3.718,0.478-5.307,1.31c-1.698-4.218-5.824-7.207-10.643-7.207c-1.87,0-3.632,0.459-5.193,1.256  c-1.617-4.381-5.822-7.519-10.757-7.519c-1.587,0-3.1,0.324-4.476,0.909v-3.219c4.72-3.123,7.915-7.882,8.987-13.312l14.909,2.688  c0.711,5.874,5.718,10.443,11.78,10.443c6.548,0,11.875-5.327,11.875-11.875s-5.327-11.875-11.875-11.875  c-4.58,0-8.556,2.611-10.536,6.419l-15.987-2.882c-0.485-3.391-1.777-6.517-3.687-9.183l32.946-12.977  C131.245,29.8,134.586,31.548,138.331,31.548z M138.331,14.798c2.688,0,4.875,2.187,4.875,4.875s-2.187,4.875-4.875,4.875  s-4.875-2.187-4.875-4.875S135.643,14.798,138.331,14.798z M33.294,21.844c-2.688,0-4.875-2.187-4.875-4.875  s2.187-4.875,4.875-4.875s4.875,2.187,4.875,4.875S35.982,21.844,33.294,21.844z M21.669,82.715c-2.688,0-4.875-2.187-4.875-4.875  s2.187-4.875,4.875-4.875s4.875,2.187,4.875,4.875S24.357,82.715,21.669,82.715z M95.131,78.947c2.468,0,4.475,2.007,4.475,4.475  v6.264v15.978c0,1.933,1.567,3.5,3.5,3.5s3.5-1.567,3.5-3.5V89.686c0-2.468,2.008-4.476,4.476-4.476s4.475,2.008,4.475,4.476v5.896  v10.082c0,1.933,1.567,3.5,3.5,3.5s3.5-1.567,3.5-3.5V95.581c0-2.468,2.007-4.475,4.475-4.475s4.476,2.007,4.476,4.475v36.858  c0,8.528-6.938,15.467-15.467,15.467H86.612c-5.984,0-11.486-3.504-14.016-8.927c-3.848-8.244-9.854-15.311-17.371-20.437  l-4.966-3.386c-0.62-0.423-0.99-1.123-0.99-1.873c0-1.25,1.017-2.267,2.266-2.267h3.566c3.967,0,7.888,1.326,11.041,3.735  l2.939,2.244c1.058,0.807,2.482,0.946,3.676,0.355c1.193-0.591,1.948-1.807,1.948-3.138V57.181c0-2.468,2.007-4.475,4.475-4.475  s4.475,2.007,4.475,4.475v26.241v22.241c0,1.933,1.567,3.5,3.5,3.5s3.5-1.567,3.5-3.5V83.422  C90.655,80.954,92.663,78.947,95.131,78.947z M90.655,60.021v-2.84c0-6.328-5.147-11.475-11.475-11.475s-11.475,5.147-11.475,11.475  v2.969c-1.602-2.309-2.509-5.074-2.509-7.94c0-7.677,6.246-13.923,13.923-13.923c7.678,0,13.924,6.246,13.924,13.923  C93.044,55.063,92.191,57.759,90.655,60.021z M126.331,52.706c2.688,0,4.875,2.187,4.875,4.875s-2.187,4.875-4.875,4.875  s-4.875-2.187-4.875-4.875S123.643,52.706,126.331,52.706z"></path></svg></g></svg>
