<svg height='100px' width='100px'  fill="#ffffff" xmlns="http://www.w3.org/2000/svg" xmlns:xlink="http://www.w3.org/1999/xlink" version="1.1" x="0px" y="0px" viewBox="0 0 1024 1024" style="enable-background:new 0 0 1024 1024;" xml:space="preserve"><g><g><g><path d="M859.5,527.4c0,27.7,0,55.3,0,83c0,41.8,0,83.6,0,125.4c0,13.9,0.4,27.8-1.4,41.6     c0.6-4.4,1.2-8.9,1.8-13.3c-1.9,13.4-5.4,26.3-10.6,38.8c1.7-4,3.4-8,5-11.9c-5.2,12.1-11.8,23.5-19.8,33.9     c2.6-3.4,5.2-6.7,7.8-10.1c-8,10.3-17.3,19.6-27.6,27.6c3.4-2.6,6.7-5.2,10.1-7.8c-10.5,8-21.8,14.7-33.9,19.8     c4-1.7,8-3.4,11.9-5c-12.4,5.2-25.4,8.7-38.8,10.6c4.4-0.6,8.9-1.2,13.3-1.8c-20.9,2.7-42.7,1.4-63.7,1.4c-39.9,0-79.7,0-119.6,0     c-48.9,0-97.9,0-146.8,0c-41.7,0-83.5,0-125.2,0c-18.2,0-36.4,0.1-54.5,0c-7,0-13.9-0.5-20.8-1.4c4.4,0.6,8.9,1.2,13.3,1.8     c-13.4-1.9-26.3-5.4-38.8-10.6c4,1.7,8,3.4,11.9,5c-12.1-5.2-23.5-11.8-33.9-19.8c3.4,2.6,6.7,5.2,10.1,7.8     c-10.3-8-19.6-17.3-27.6-27.6c2.6,3.4,5.2,6.7,7.8,10.1c-8-10.5-14.7-21.8-19.8-33.9c1.7,4,3.4,8,5,11.9     c-5.2-12.4-8.7-25.4-10.6-38.8c0.6,4.4,1.2,8.9,1.8,13.3c-2.7-20.9-1.4-42.7-1.4-63.7c0-39.9,0-79.7,0-119.6     c0-48.9,0-97.9,0-146.8c0-41.7,0-83.5,0-125.2c0-18.2-0.1-36.4,0-54.5c0-7,0.5-13.9,1.4-20.8c-0.6,4.4-1.2,8.9-1.8,13.3     c1.9-13.4,5.4-26.3,10.6-38.8c-1.7,4-3.4,8-5,11.9c5.2-12.1,11.8-23.5,19.8-33.9c-2.6,3.4-5.2,6.7-7.8,10.1     c8-10.3,17.3-19.6,27.6-27.6c-3.4,2.6-6.7,5.2-10.1,7.8c10.5-8,21.8-14.7,33.9-19.8c-4,1.7-8,3.4-11.9,5     c12.4-5.2,25.4-8.7,38.8-10.6c-4.4,0.6-8.9,1.2-13.3,1.8c12.1-1.6,24.3-1.4,36.5-1.4c17.7,0,35.4,0,53.1,0c43.2,0,86.5,0,129.7,0     c10.2,0,20.5,0,30.7,0c12.8,0,26.3-5.6,35.4-14.6c8.7-8.7,15.2-22.9,14.6-35.4c-0.6-12.9-4.8-26.3-14.6-35.4     c-9.8-9-21.8-14.6-35.4-14.6c-25.3,0-50.6,0-75.8,0c-40.9,0-81.8,0-122.7,0c-9.9,0-19.9,0-29.8,0c-32.8,0-64.1,8-93.4,22.4     c-32.8,16.1-60.5,42.9-79.9,73.6c-20,31.6-30.3,69.6-30.4,106.9c-0.1,14,0,28,0,42.1c0,34.4,0,68.8,0,103.2     c0,43.3,0,86.5,0,129.8c0,40.6,0,81.2,0,121.8c0,26.4,0,52.9,0,79.3c0,4.3,0,8.6,0,13c0.1,35.3,9.4,70.7,27,101.3     c35.8,62.4,104.2,101.4,176,101.6c15.5,0.1,31,0,46.5,0c35.2,0,70.4,0,105.6,0c43.4,0,86.8,0,130.2,0c40.1,0,80.2,0,120.3,0     c25.3,0,50.6,0,75.9,0c4.4,0,8.9,0.1,13.3,0c37.3-0.7,75.6-11.5,106.8-32.2c30.3-20.1,56.8-47.9,72.3-81.1     c13.4-28.9,21-58.8,21-90.8c0-29.7,0-59.3,0-89c0-39.4,0-78.7,0-118.1c0-7,0-13.9,0-20.9c0-12.8-5.6-26.3-14.6-35.4     c-8.7-8.7-22.9-15.2-35.4-14.6c-12.9,0.6-26.3,4.8-35.4,14.6C865.2,501.8,859.5,513.8,859.5,527.4L859.5,527.4z"></path></g></g><g><g><path d="M687.5,164.5c25,0,50.1,0,75.1,0c39.9,0,79.7,0,119.6,0c9.1,0,18.2,0,27.3,0c12.8,0,26.3-5.6,35.4-14.6     c8.7-8.7,15.2-22.9,14.6-35.4c-0.6-12.9-4.8-26.3-14.6-35.4c-9.8-9-21.8-14.6-35.4-14.6c-25,0-50.1,0-75.1,0     c-39.9,0-79.7,0-119.6,0c-9.1,0-18.2,0-27.3,0c-12.8,0-26.3,5.6-35.4,14.6c-8.7,8.7-15.2,22.9-14.6,35.4     c0.6,12.9,4.8,26.3,14.6,35.4C661.9,158.8,674,164.5,687.5,164.5L687.5,164.5z"></path></g></g><g><g><path d="M959.5,336.5c0-25,0-50.1,0-75.1c0-39.9,0-79.7,0-119.6c0-9.1,0-18.2,0-27.3c0-12.8-5.6-26.3-14.6-35.4     c-8.7-8.7-22.9-15.2-35.4-14.6c-12.9,0.6-26.3,4.8-35.4,14.6c-9,9.8-14.6,21.8-14.6,35.4c0,25,0,50.1,0,75.1     c0,39.9,0,79.7,0,119.6c0,9.1,0,18.2,0,27.3c0,12.8,5.6,26.3,14.6,35.4c8.7,8.7,22.9,15.2,35.4,14.6c12.9-0.6,26.3-4.8,35.4-14.6     C953.8,362.1,959.5,350,959.5,336.5L959.5,336.5z"></path></g></g><g><g><path d="M548.2,546.5c13.2-13.2,26.5-26.5,39.7-39.7c31.5-31.5,63.1-63.1,94.6-94.6     c38.1-38.1,76.2-76.2,114.4-114.4c33.1-33.1,66.1-66.1,99.2-99.2c16-16,32.3-31.9,48.1-48.1c0.2-0.2,0.4-0.4,0.7-0.7     c9.1-9.1,14.6-22.5,14.6-35.4c0-12.3-5.4-26.9-14.6-35.4c-9.5-8.7-22-15.2-35.4-14.6c-13.3,0.6-25.8,5.1-35.4,14.6     c-13.2,13.2-26.5,26.5-39.7,39.7c-31.5,31.5-63.1,63.1-94.6,94.6c-38.1,38.1-76.2,76.2-114.4,114.4     c-33.1,33.1-66.1,66.1-99.2,99.2c-16,16-32.3,31.9-48.1,48.1c-0.2,0.2-0.4,0.4-0.7,0.7c-9.1,9.1-14.6,22.5-14.6,35.4     c0,12.3,5.4,26.9,14.6,35.4c9.5,8.7,22,15.2,35.4,14.6C526.1,560.6,538.6,556.1,548.2,546.5L548.2,546.5z"></path></g></g></g></svg>
