<svg height='100px' width='100px'  fill="#000000" xmlns="http://www.w3.org/2000/svg" data-name="Layer 1" viewBox="0 0 80 80" x="0px" y="0px"><path d="M71,23.31V56.69a8.44,8.44,0,0,1-8.43,8.43H50a3.93,3.93,0,1,1,0-7.85H62.57a.58.58,0,0,0,.58-.58V23.31a.58.58,0,0,0-.58-.58H50a3.93,3.93,0,1,1,0-7.85H62.57A8.44,8.44,0,0,1,71,23.31Z"></path><path d="M51.38,40.49a3.93,3.93,0,0,1-3.92,3.93H22.39l8,7.95a3.91,3.91,0,0,1,0,5.55,3.91,3.91,0,0,1-5.54,0L10.14,43.27a4,4,0,0,1,0-5.56L24.8,23.07a3.93,3.93,0,0,1,6.7,2.77,3.9,3.9,0,0,1-1.16,2.78l-7.95,8H47.46A3.93,3.93,0,0,1,51.38,40.49Z"></path></svg>
