<svg viewBox="0 0 137 92" fill="none" xmlns="http://www.w3.org/2000/svg">
<rect width="137" height="92" rx="15" fill="#F78000"/>
<path d="M42.25 13.5H19.75C18.0924 13.5 16.5027 14.1585 15.3306 15.3306C14.1585 16.5027 13.5 18.0924 13.5 19.75V42.25C13.5 43.9076 14.1585 45.4973 15.3306 46.6694C16.5027 47.8415 18.0924 48.5 19.75 48.5H42.25C43.9076 48.5 45.4973 47.8415 46.6694 46.6694C47.8415 45.4973 48.5 43.9076 48.5 42.25V19.75C48.5 18.0924 47.8415 16.5027 46.6694 15.3306C45.4973 14.1585 43.9076 13.5 42.25 13.5ZM19.75 16H42.25C43.2446 16 44.1984 16.3951 44.9017 17.0983C45.6049 17.8016 46 18.7554 46 19.75V26.7375L43.65 24.3875C42.9469 23.6852 41.9938 23.2908 41 23.2908C40.0062 23.2908 39.0531 23.6852 38.35 24.3875L28.4125 34.3875L24.6625 31.3625C23.9925 30.8141 23.1533 30.5145 22.2875 30.5145C21.4217 30.5145 20.5825 30.8141 19.9125 31.3625L16 34.575V19.75C16 18.7554 16.3951 17.8016 17.0983 17.0983C17.8016 16.3951 18.7554 16 19.75 16ZM42.25 46H19.75C18.7554 46 17.8016 45.6049 17.0983 44.9017C16.3951 44.1984 16 43.2446 16 42.25V37.8375L21.475 33.2625C21.6987 33.0786 21.9792 32.9781 22.2688 32.9781C22.5583 32.9781 22.8388 33.0786 23.0625 33.2625L27.725 37.0125C27.9645 37.2046 28.2663 37.3019 28.5729 37.2858C28.8796 37.2696 29.1695 37.1412 29.3875 36.925L40.1125 26.1875C40.2287 26.0703 40.367 25.9773 40.5193 25.9139C40.6716 25.8504 40.835 25.8178 41 25.8178C41.165 25.8178 41.3284 25.8504 41.4807 25.9139C41.633 25.9773 41.7713 26.0703 41.8875 26.1875L46 30.2625V42.25C46 43.2446 45.6049 44.1984 44.9017 44.9017C44.1984 45.6049 43.2446 46 42.25 46Z" fill="white"/>
<path d="M23.5 27.25C24.2417 27.25 24.9667 27.0301 25.5834 26.618C26.2001 26.206 26.6807 25.6203 26.9645 24.9351C27.2484 24.2498 27.3226 23.4958 27.1779 22.7684C27.0333 22.041 26.6761 21.3728 26.1517 20.8484C25.6272 20.3239 24.959 19.9668 24.2316 19.8221C23.5042 19.6774 22.7502 19.7516 22.0649 20.0355C21.3797 20.3193 20.794 20.7999 20.382 21.4166C19.9699 22.0333 19.75 22.7583 19.75 23.5C19.75 24.4946 20.1451 25.4484 20.8483 26.1517C21.5516 26.8549 22.5054 27.25 23.5 27.25ZM23.5 22.25C23.7472 22.25 23.9889 22.3233 24.1945 22.4607C24.4 22.598 24.5602 22.7932 24.6548 23.0216C24.7495 23.2501 24.7742 23.5014 24.726 23.7439C24.6778 23.9863 24.5587 24.2091 24.3839 24.3839C24.2091 24.5587 23.9863 24.6778 23.7439 24.726C23.5014 24.7742 23.2501 24.7495 23.0216 24.6549C22.7932 24.5602 22.598 24.4 22.4607 24.1945C22.3233 23.9889 22.25 23.7472 22.25 23.5C22.25 23.1685 22.3817 22.8505 22.6161 22.6161C22.8505 22.3817 23.1685 22.25 23.5 22.25Z" fill="white"/>
<rect x="60" y="14" width="64" height="12" rx="4" fill="white"/>
<rect x="14" y="56" width="110" height="7" rx="3.5" fill="white"/>
<rect x="14" y="65" width="110" height="7" rx="3.5" fill="white"/>
<rect x="14" y="74" width="110" height="7" rx="3.5" fill="white"/>
</svg>
