<svg height='100px' width='100px'  fill="#f38f19" xmlns:x="http://ns.adobe.com/Extensibility/1.0/" xmlns:i="http://ns.adobe.com/AdobeIllustrator/10.0/" xmlns:graph="http://ns.adobe.com/Graphs/1.0/" xmlns="http://www.w3.org/2000/svg" xmlns:xlink="http://www.w3.org/1999/xlink" version="1.1" x="0px" y="0px" viewBox="0 0 100 100" enable-background="new 0 0 100 100" xml:space="preserve"><g><g i:extraneous="self"><path d="M95.168,78.534H5.473V22.31h89.695V78.534L95.168,78.534z M6.473,77.534h87.695V23.31H6.473V77.534L6.473,77.534z"></path><g><path d="M13.804,72.695H5.715V70.23h8.036l-0.081,0.312c-0.083,0.322-0.122,0.594-0.122,0.854c0,0.302,0.051,0.612,0.16,0.977     L13.804,72.695L13.804,72.695z M6.215,72.195h6.928c-0.064-0.281-0.095-0.541-0.095-0.798c0-0.214,0.021-0.431,0.067-0.667h-6.9     V72.195L6.215,72.195z"></path><path d="M94.995,72.695H20.125l0.097-0.322c0.109-0.363,0.16-0.674,0.16-0.976c0-0.263-0.039-0.534-0.122-0.854l-0.081-0.312     h74.817V72.695L94.995,72.695z M20.786,72.195h73.709V70.73H20.814c0.045,0.235,0.067,0.452,0.067,0.667     C20.881,71.654,20.85,71.914,20.786,72.195L20.786,72.195z"></path></g><path d="M48.391,57.363c-5.98,0-10.845-4.865-10.845-10.845c0-5.98,4.865-10.846,10.845-10.846    c5.979,0,10.845,4.865,10.845,10.846C59.235,52.498,54.37,57.363,48.391,57.363L48.391,57.363z M48.391,36.673    c-5.428,0-9.845,4.417-9.845,9.846s4.417,9.845,9.845,9.845c5.429,0,9.845-4.416,9.845-9.845S53.819,36.673,48.391,36.673    L48.391,36.673z"></path><path d="M44.534,51.085v-9.363l11.243,4.889L44.534,51.085L44.534,51.085z M44.961,42.374v8.083l9.705-3.862L44.961,42.374    L44.961,42.374z"></path><path fill="#f38f19" d="M-47.349,4.161c1.898,1.899,1.898,4.978,0,6.876c-1.899,1.899-4.978,1.899-6.877,0    c-1.898-1.899-1.898-4.978,0-6.876C-52.326,2.262-49.248,2.262-47.349,4.161"></path><path d="M16.965,75.314c-2.16,0-3.917-1.757-3.917-3.917c0-2.159,1.757-3.916,3.917-3.916c2.159,0,3.916,1.757,3.916,3.916    C20.881,73.558,19.124,75.314,16.965,75.314L16.965,75.314z M16.965,67.981c-1.884,0-3.417,1.532-3.417,3.416    s1.533,3.417,3.417,3.417c1.884,0,3.416-1.533,3.416-3.417S18.849,67.981,16.965,67.981L16.965,67.981z"></path></g></g></svg>
