<svg viewBox="0 0 54 36" fill="none" xmlns="http://www.w3.org/2000/svg">
<path d="M37.8889 22.7302C37.7965 22.7302 37.7024 22.7364 37.6096 22.7506C36.4486 22.9182 35.6301 24.0732 35.7846 25.3266C35.9246 26.4612 36.831 27.3169 37.8918 27.3169C37.985 27.3169 38.0783 27.3107 38.1715 27.2974C39.3321 27.1298 40.1501 25.9748 39.9965 24.7205C39.8561 23.5859 38.9501 22.7302 37.8889 22.7302V22.7302Z" fill="#787878"/>
<path d="M40.8022 8.95092C39.8547 8.27521 38.6042 7.91785 37.1836 7.91785C36.7663 7.91785 36.3368 7.94888 35.9084 8.01051C34.4908 8.21447 33.1154 8.95579 32.1346 10.0425C31.1403 11.146 30.6569 12.493 30.8109 13.7376C30.9239 14.6563 31.5645 15.2499 32.4426 15.2499C32.5367 15.2499 32.6328 15.2424 32.7289 15.2291C33.9018 15.0602 34.1547 14.188 34.3987 13.3451C34.6772 12.3839 34.9396 11.4772 36.4554 11.2581C36.6106 11.236 36.7622 11.2244 36.9059 11.2244C37.9967 11.2244 38.6739 11.8461 38.8136 12.9749C38.9504 14.0798 38.1413 14.9608 37.2846 15.8932C36.3232 16.94 35.2332 18.1261 35.4411 19.8087C35.4945 20.2423 35.6719 20.6462 35.9392 20.9472C36.246 21.2922 36.6477 21.4748 37.1003 21.4748C37.1832 21.4748 37.269 21.4691 37.3545 21.4562C38.5816 21.2793 38.7488 20.5109 38.9102 19.7665C38.9714 19.4854 39.035 19.1945 39.1574 18.9325C39.3274 18.5662 39.7533 18.1366 40.2473 17.6395C41.426 16.4504 43.0399 14.8219 42.7415 12.4095C42.5538 10.8989 41.9008 9.73511 40.8022 8.95069L40.8022 8.95092Z" fill="#787878"/>
<path d="M53.9788 28.9878L50.6916 2.3938C50.5224 1.02948 49.4345 0 48.1598 0C48.0472 0 47.9326 0.00842416 47.8201 0.024829L23.1869 3.57365C21.7905 3.77494 20.8061 5.16532 20.9921 6.67367L21.1798 8.19531L5.02365 5.67518C4.9296 5.66055 4.8335 5.65301 4.73864 5.65301C3.76079 5.65301 2.91811 6.44177 2.77765 7.48724L0.0206765 28.0871C-0.0548897 28.6533 0.0781731 29.2168 0.395222 29.6748C0.712679 30.1323 1.17553 30.4299 1.69996 30.5114L20.78 33.4874C20.8748 33.5016 20.9705 33.5082 21.065 33.5082C22.0428 33.5082 22.8855 32.7208 23.0255 31.6745L23.5742 27.5728L24.2777 33.2661C24.4465 34.6313 25.5348 35.6604 26.8088 35.6604C26.9217 35.6604 27.0367 35.6529 27.1492 35.6369L51.7825 32.0868C52.4577 31.9902 53.0594 31.6137 53.4741 31.0285C53.8893 30.4441 54.0672 29.7188 53.9772 28.9885L53.9788 28.9878ZM21.3983 31.4211C21.3725 31.6162 21.2016 31.7572 21.0172 31.7279L1.93616 28.752C1.81543 28.7333 1.74601 28.6553 1.7148 28.6101C1.68359 28.5649 1.63431 28.4695 1.65114 28.3401L4.40769 7.74021C4.43192 7.56286 4.57443 7.42896 4.73911 7.42896C4.75554 7.42896 4.77279 7.43029 4.78839 7.43295L21.4072 10.0245L22.7776 21.1125L21.3983 31.4211ZM51.7909 29.6365C51.7503 29.6941 51.6583 29.7943 51.5034 29.8165L26.8702 33.3658C26.6316 33.4012 26.4143 33.2164 26.3827 32.9636L23.0955 6.36961C23.0639 6.11334 23.2311 5.87747 23.468 5.84333L48.1002 2.29405C48.1208 2.29139 48.1397 2.29006 48.1602 2.29006C48.3758 2.29006 48.5606 2.46476 48.589 2.69708L51.8773 29.2911C51.8966 29.4578 51.8301 29.5784 51.7902 29.6356L51.7909 29.6365Z" fill="#787878"/>
<path d="M17.0037 13.4037C16.2476 12.6561 15.128 12.1342 13.8517 11.9352C13.6184 11.8984 13.379 11.8797 13.1404 11.8797C12.1379 11.8797 11.1523 12.1976 10.3633 12.7749C9.55265 13.3686 9.04094 14.1751 8.92508 15.0454C8.86964 15.4591 8.96081 15.828 9.18997 16.1126C9.39613 16.368 9.70621 16.5405 10.0643 16.5964C10.1543 16.6106 10.2409 16.6181 10.3235 16.6181C11.0459 16.6181 11.3687 16.086 11.6803 15.5717C12.0282 14.9958 12.358 14.4518 13.2348 14.4518C13.3559 14.4518 13.4873 14.4624 13.6233 14.4837C14.6619 14.6451 15.1805 15.3088 15.0467 16.3042C14.933 17.159 14.1559 17.6325 13.3346 18.1326C12.4122 18.6944 11.3657 19.3314 11.1916 20.635C11.1427 20.9986 11.2109 21.3773 11.3801 21.673C11.5185 21.9159 11.7891 22.2214 12.2968 22.3008C12.4027 22.3167 12.5033 22.3256 12.5966 22.3256H12.597C13.3108 22.3256 13.5539 21.8521 13.788 21.3945C13.8886 21.1981 13.9921 20.9955 14.1354 20.8283C14.3338 20.5938 14.7366 20.3699 15.2023 20.1114C16.3153 19.4938 17.8393 18.6456 18.089 16.7781C18.2656 15.4493 17.8915 14.2824 17.0036 13.4036L17.0037 13.4037Z" fill="#787878"/>
<path d="M12.2337 23.325C12.1561 23.3131 12.0776 23.306 12 23.306C11.1856 23.306 10.4833 23.9626 10.3667 24.8316C10.2378 25.8021 10.8637 26.7062 11.7626 26.8467C11.8402 26.8596 11.9191 26.8645 11.9963 26.8645C12.8111 26.8645 13.5134 26.2092 13.6296 25.3401C13.7585 24.3696 13.1326 23.4664 12.2337 23.325V23.325Z" fill="#787878"/>
</svg>
