<svg height='100px' width='100px'  fill="#f78000" xmlns="http://www.w3.org/2000/svg" xmlns:xlink="http://www.w3.org/1999/xlink" xml:space="preserve" version="1.0" style="shape-rendering:geometricPrecision;text-rendering:geometricPrecision;image-rendering:optimizeQuality;" viewBox="0 0 128000 128000" x="0px" y="0px" fill-rule="evenodd" clip-rule="evenodd"><g><path class="fil0" d="M64000 32239c17541,0 31761,14220 31761,31761 0,17541 -14220,31761 -31761,31761 -17541,0 -31761,-14220 -31761,-31761 0,-17541 14220,-31761 31761,-31761zm0 -32239c17671,0 33673,7163 45254,18746 11583,11581 18746,27583 18746,45254 0,17671 -7163,33673 -18746,45254 -11580,11580 -27583,18746 -45254,18746 -17671,0 -33674,-7166 -45254,-18746 -11583,-11581 -18746,-27583 -18746,-45254 0,-17671 7163,-33673 18746,-45254 11581,-11583 27583,-18746 45254,-18746zm38190 25810c-9772,-9774 -23276,-15819 -38190,-15819 -14914,0 -28418,6045 -38190,15819 -9774,9772 -15819,23276 -15819,38190 0,14914 6045,28418 15819,38190 9772,9773 23276,15819 38190,15819 14914,0 28418,-6046 38190,-15819 9774,-9772 15819,-23276 15819,-38190 0,-14914 -6045,-28418 -15819,-38190z"></path></g></svg>
