<svg height='100px' width='100px'  fill="#000000" xmlns="http://www.w3.org/2000/svg" data-name="Layer 3" viewBox="0 0 24 24" x="0px" y="0px"><path d="M16.02,4.331a1.566,1.566,0,0,0-1.642-.176,1.471,1.471,0,0,0-.844,1.327.976.976,0,0,0,.009.132L13.86,8H9.969A7.976,7.976,0,0,0,2,15.967v2.549a1.476,1.476,0,0,0,1.253,1.46A1.743,1.743,0,0,0,3.539,20a1.493,1.493,0,0,0,1.423-.991A1.032,1.032,0,0,0,5,18.855,5.975,5.975,0,0,1,10.869,14H13.88l-.339,2.955a.872.872,0,0,0-.007.114,1.47,1.47,0,0,0,.844,1.327,1.6,1.6,0,0,0,1.711-.236l4.986-4.743a2.94,2.94,0,0,0,0-4.282Z"></path></svg>
