<svg xmlns="http://www.w3.org/2000/svg" xmlns:xlink="http://www.w3.org/1999/xlink" fill="#f78000" version="1.1" x="0px" y="0px" enable-background="new 0 0 100 100" xml:space="preserve" viewBox="5 39.84 90 20.32"><g><g><path d="M76.129,42.742h17.419c0.802,0,1.452-0.65,1.452-1.452c0-0.801-0.65-1.452-1.452-1.452H76.129    c-0.802,0-1.452,0.65-1.452,1.452C74.677,42.092,75.327,42.742,76.129,42.742z"/><path d="M6.452,42.742h60.968c0.802,0,1.452-0.65,1.452-1.452c0-0.801-0.65-1.452-1.452-1.452H6.452C5.65,39.839,5,40.489,5,41.29    C5,42.092,5.65,42.742,6.452,42.742z"/><path d="M6.452,51.452h17.419c0.802,0,1.452-0.65,1.452-1.452s-0.65-1.452-1.452-1.452H6.452C5.65,48.548,5,49.199,5,50    S5.65,51.452,6.452,51.452z"/><path d="M41.29,48.548h-8.71c-0.802,0-1.452,0.65-1.452,1.452s0.65,1.452,1.452,1.452h8.71c0.802,0,1.452-0.65,1.452-1.452    S42.092,48.548,41.29,48.548z"/><path d="M93.548,48.548H50c-0.802,0-1.452,0.65-1.452,1.452s0.65,1.452,1.452,1.452h43.548C94.35,51.452,95,50.801,95,50    S94.35,48.548,93.548,48.548z"/><path d="M36.935,57.258H6.452C5.65,57.258,5,57.908,5,58.71c0,0.801,0.65,1.452,1.452,1.452h30.484    c0.802,0,1.452-0.65,1.452-1.452C38.387,57.908,37.737,57.258,36.935,57.258z"/></g></g></svg>
