<svg xmlns="http://www.w3.org/2000/svg" xmlns:xlink="http://www.w3.org/1999/xlink" version="1.1" x="0px" y="0px" viewBox="0 0 90 90" enable-background="new 0 0 90 90" xml:space="preserve"><path d="M45,43.293c3.63,0,6.924-1.481,9.306-3.87c2.373-2.379,3.841-5.66,3.841-9.277  c0-7.25-5.897-13.147-13.146-13.147c-7.25,0-13.147,5.897-13.147,13.147c0,3.618,1.469,6.897,3.842,9.277  C38.077,41.812,41.369,43.293,45,43.293z"></path><path d="M79.403,40.413c-2.343,2.606-5.737,4.249-9.509,4.249c-2.179,0-4.223-0.562-6.02-1.527  c4.682,5.363,7.363,12.55,7.363,20.229c0,1.027-0.066,1.973-0.182,2.859c9.342,0.061,16.732,0.65,16.732-8.771  C87.789,50.271,84.439,43.972,79.403,40.413z"></path><path d="M69.895,41.998c2.796,0,5.332-1.141,7.166-2.98c1.827-1.832,2.957-4.358,2.957-7.145  c0-5.582-4.541-10.123-10.123-10.123s-10.123,4.542-10.123,10.123c0,2.787,1.13,5.312,2.958,7.145  C64.563,40.857,67.099,41.998,69.895,41.998z"></path><path d="M26.128,43.133c-1.798,0.967-3.843,1.529-6.023,1.529c-3.771,0-7.166-1.643-9.509-4.248  C5.56,43.973,2.21,50.271,2.21,57.453c0,8.627,7.412,8.768,16.766,8.766c-0.138-0.9-0.214-1.848-0.214-2.854  C18.762,55.685,21.445,48.497,26.128,43.133z"></path><path d="M20.105,41.998c2.796,0,5.332-1.141,7.166-2.98c1.827-1.832,2.957-4.358,2.957-7.145  c0-5.582-4.541-10.123-10.123-10.123S9.982,26.292,9.982,31.873c0,2.787,1.13,5.312,2.958,7.145  C14.774,40.857,17.309,41.998,20.105,41.998z"></path><path d="M58.41,42.039c-0.348-0.277-0.699-0.547-1.061-0.803c-3.044,3.384-7.452,5.517-12.35,5.517  c-4.898,0-9.306-2.132-12.348-5.517c-0.361,0.255-0.713,0.526-1.062,0.803c-5.943,4.73-9.829,12.514-9.829,21.325  c0,1.049,0.084,2,0.247,2.864c1.566,8.317,10.395,8.52,21.31,8.52c0.555,0,1.116-0.001,1.682-0.001c2.251,0,4.428,0.042,6.485,0.042  c8.708,0,15.29-0.77,16.525-8.57c0.138-0.869,0.228-1.802,0.228-2.854C68.238,54.553,64.353,46.769,58.41,42.039z"></path></svg>
