<svg xmlns="http://www.w3.org/2000/svg" xmlns:xlink="http://www.w3.org/1999/xlink" width="100" height="100" viewBox="0 0 100 100"><circle stroke="none" fill="#f78000" r="48%" cx="50%" cy="50%"></circle><g transform="translate(50 50) scale(0.69 0.69) rotate(0) translate(-50 -50)" style="fill:#ffffff"><svg fill="#ffffff" xmlns="http://www.w3.org/2000/svg" viewBox="0 0 16 16" x="0px" y="0px"><path d="M9.46448,7.94971l3.18195-3.18195a0.49989,0.49989,0,0,0,0-.70709l-0.70709-.70715a0.5,0.5,0,0,0-.70709,0l-3.182,3.182-3.18195-3.182a0.5,0.5,0,0,0-.70709,0L3.4541,4.06067a0.5,0.5,0,0,0,0,.70709L6.636,7.94971l-3.182,3.182a0.5,0.5,0,0,0,0,.70709L4.16119,12.5459a0.5,0.5,0,0,0,.70709,0l3.182-3.182,3.18195,3.182a0.49989,0.49989,0,0,0,.70709,0l0.70709-.70709a0.49989,0.49989,0,0,0,0-.70709Z" fill="#ffffff"></path></svg></g></svg>
