<svg width="30" height="30" viewBox="0 0 30 30" fill="none" xmlns="http://www.w3.org/2000/svg">
<g filter="url(#filter0_d)">
<rect x="2" width="26" height="26" rx="8" fill="#E2E2E2"/>
</g>
<path d="M10.2143 10.1789C10.1027 9.56505 10.5743 9 11.1982 9H18.8018C19.4257 9 19.8973 9.56505 19.7857 10.1789L18.1493 19.1789C18.0628 19.6544 17.6487 20 17.1654 20H12.8346C12.3513 20 11.9372 19.6544 11.8507 19.1789L10.2143 10.1789Z" stroke="white" stroke-width="2"/>
<path d="M13 9V7C13 6.44772 13.4477 6 14 6H16C16.5523 6 17 6.44772 17 7V9" stroke="white" stroke-width="2"/>
<path d="M8 9H22" stroke="white" stroke-width="2" stroke-linecap="round"/>
<defs>
<filter id="filter0_d" x="0" y="0" width="30" height="30" filterUnits="userSpaceOnUse" color-interpolation-filters="sRGB">
<feFlood flood-opacity="0" result="BackgroundImageFix"/>
<feColorMatrix in="SourceAlpha" type="matrix" values="0 0 0 0 0 0 0 0 0 0 0 0 0 0 0 0 0 0 127 0"/>
<feOffset dy="2"/>
<feGaussianBlur stdDeviation="1"/>
<feColorMatrix type="matrix" values="0 0 0 0 0 0 0 0 0 0 0 0 0 0 0 0 0 0 0.12 0"/>
<feBlend mode="normal" in2="BackgroundImageFix" result="effect1_dropShadow"/>
<feBlend mode="normal" in="SourceGraphic" in2="effect1_dropShadow" result="shape"/>
</filter>
</defs>
</svg>
