<svg xmlns="http://www.w3.org/2000/svg" viewBox="0 0 640 512" fill="currentColor">
  <path d="M144 160c-44.2 0-80-35.8-80-80S99.8 0 144 0s80 35.8 80 80-35.8 80-80 80zm368 0c-44.2 0-80-35.8-80-80s35.8-80 80-80 80 35.8 80 80-35.8 80-80 80zM0 298.7C0 239.8 47.8 192 106.7 192h42.7c15.9 0 31 3.5 44.6 9.7-1.3 7.2-1.9 14.7-1.9 22.3 0 38.2 16.8 72.5 43.3 96H21.3C9.6 320 0 310.4 0 298.7zM405.3 320c26.5-23.5 43.3-57.8 43.3-96 0-7.6-.7-15-1.9-22.3 13.6-6.3 28.7-9.7 44.6-9.7h42.7c58.9 0 106.7 47.8 106.7 106.7 0 11.8-9.6 21.3-21.3 21.3H405.3zM224 224c70.7 0 128-57.3 128-128S294.7-32 224-32 96 25.3 96 96s57.3 128 128 128zm89.6 32h-16.7c-22.2 10.2-46.9 16-72.9 16s-50.6-5.8-72.9-16h-16.7C60.2 256 0 316.2 0 387.4V464c0 26.5 21.5 48 48 48h352c26.5 0 48-21.5 48-48v-76.6c0-71.2-60.2-131.4-131.4-131.4z"/>
</svg>
