<svg xmlns="http://www.w3.org/2000/svg" xmlns:xlink="http://www.w3.org/1999/xlink" version="1.1" x="0px" y="0px" viewBox="0 0 60 60" style="enable-background:new 0 0 60 60;" xml:space="preserve"><path d="M30.0010986,5c-13.789978,0-25,11.2200317-25,25c0,4.5900269,1.25,9.0599976,3.6300049,12.960022L5.0510864,53.6900024  c-0.1199951,0.3599854-0.0299683,0.75,0.2399902,1.0200195C5.4810791,54.9000244,5.7410889,55,6.0010986,55  c0.1099854,0,0.210022-0.0100098,0.3200073-0.0499878l10.7199707-3.5700073C20.9511108,53.75,25.4210815,55,30.0010986,55  c13.789978,0,25-11.2099609,25-25C55.0010986,16.2200317,43.7910767,5,30.0010986,5z M46.0010986,40.1199951  c0,0.8699951-0.3599854,1.7300415-0.9799805,2.3500366l-2.6000366,2.5700073C41.8010864,45.6600342,40.9611206,46,40.1010742,46  h-0.1300049c-13.9699707-0.5999756-25.3699951-12-25.9699707-25.9599609c-0.039978-0.9100342,0.3099976-1.8100586,0.960022-2.460022  l2.5700073-2.6000366C18.151123,14.3599854,19.0111084,14,19.8911133,14h0.9599609  c1.3699951,0,2.6199951,0.8599854,3.1000366,2.1500244l2.2799683,6.0499878  c0.4400024,1.1799927,0.1700439,2.5299683-0.6999512,3.4500122l-0.9400024,0.9899902  c-0.4300537,0.4500122-0.4800415,1.1400146-0.1300049,1.6500244c1.1599731,1.6799927,3.6399536,4.8499756,7.2599487,7.289978  c0.5,0.3300171,1.1800537,0.2700195,1.6200562-0.1500244l1.0199585-0.9599609  c0.9100342-0.8699951,2.2600098-1.1400146,3.4400024-0.7000122l6.0499878,2.2799683  c1.2900391,0.4900513,2.1500244,1.7300415,2.1500244,3.1000366V40.1199951z"></path></svg>
